Scrrens :  http://bayimg.com/LAPGBAACi 
          http://bayimg.com/LaPgcAaCi
Two young wolves at opposite ends of their pack's social order are thrown together
into a foreign land and need each other to return home, but love complicates
everything.
 
http://www.imdb.com/title/tt1213012/

Video
ID                               : 0
Format                           : MPEG-4 Visual
Format profile                   : Advanced Simple@L5
Format settings, BVOP            : Yes
Format settings, QPel            : No
Format settings, GMC             : No warppoints
Format settings, Matrix          : Default (H.263)
Muxing mode                      : Packed bitstream
Codec ID                         : XVID
Codec ID/Hint                    : XviD
Duration                         : 1h 18mn
Bit rate                         : 2 620 Kbps
Width                            : 720 pixels
Height                           : 378 pixels
Display aspect ratio             : 1.905
Frame rate                       : 29.970 fps
Resolution                       : 8 bits
Colorimetry                      : 4:2:0
Scan type                        : Progressive
Bits/(Pixel*Frame)               : 0.321
Stream size                      : 1.45 GiB (91%)
Writing library                  : XviD 1.2.1 (UTC 2008-12-04)

Audio
ID                               : 1
Format                           : AC-3
Format/Info                      : Audio Coding 3
Codec ID                         : 2000
Duration                         : 1h 18mn
Bit rate mode                    : Constant
Bit rate                         : 256 Kbps
Channel(s)                       : 2 channels
Channel positions                : L R
Sampling rate                    : 48.0 KHz
Stream size                      : 145 MiB (9%)
Alignment                        : Aligned on interleaves
Interleave, duration             : 480 ms (14.38 video frames)
Interleave, preload duration     : 960 ms

